# xmcd
#
# Track frame offsets:
# 150
# 35887
# 119362
# 147262
# 152025
# 173437
# 234225
# 250437
#
# Disc length: 3856 seconds
#
# Revision: 0
# Processed by: cddbd v1.4PL0 Copyright (c) Steve Scherf et al.
# Submitted via: Axialis_AX_CDPlayer 2.6
#
DISCID=660f0e08
DTITLE=Jimi Hendrix  and B. B. King - Blues Jam
DYEAR=1900
DGENRE=
TTITLE0=Like A Rolling Stone
TTITLE1=Blues Jam N1 (Part 1)
TTITLE2=Blues Jam N1 (Part 2)
TTITLE3=Band Introduction By B. B. King
TTITLE4=Blues Jam N2 (Part 1)
TTITLE5=Blues Jam N2 (Part 2)
TTITLE6=Blues Jam N3
TTITLE7=It's My Own Fault
EXTD=
EXTT0=
EXTT1=
EXTT2=
EXTT3=
EXTT4=
EXTT5=
EXTT6=
EXTT7=
PLAYORDER=
